# xmcd
#
# Track frame offsets:
#	150
#	19374
#	32600
#	50460
#	63123
#	76688
#	96834
#	111827
#	127415
#	142793
#	160062
#	175950
#
# Disc length: 2550 seconds
#
# Revision: 1
# Processed by: cddbd v1.5.1PL2 Copyright (c) Steve Scherf et al.
# Submitted via: audiograbber 1.83.01
#
DISCID=9709f40c
DTITLE=Illeagles - Dumb
DYEAR=1900
DGENRE=country
TTITLE0=Dumb
TTITLE1=All Backed up
TTITLE2=Because there's you
TTITLE3=Talk about me '05
TTITLE4=Kiss This
TTITLE5=Remember Thin
TTITLE6=Give a damn's busted
TTITLE7=Redneck man
TTITLE8=Mama
TTITLE9=Needaleaderville (Virginia Beach)
TTITLE10=I ate everything
TTITLE11=Party for you
EXTD=
EXTT0=
EXTT1=
EXTT2=
EXTT3=
EXTT4=
EXTT5=
EXTT6=
EXTT7=
EXTT8=
EXTT9=
EXTT10=
EXTT11=
PLAYORDER=
